<svg width="800" height="600" viewBox="0 0 800 600" xmlns="http://www.w3.org/2000/svg">
  <!-- Background elements -->
  <circle cx="400" cy="300" r="250" fill="#f0f9ff" />
  <circle cx="150" cy="450" r="100" fill="#dbeafe" opacity="0.7" />
  <circle cx="650" cy="150" r="120" fill="#dbeafe" opacity="0.7" />
  
  <!-- Character -->
  <circle cx="400" cy="260" r="100" fill="white" stroke="#38b2ea" stroke-width="3" />
  <circle cx="365" cy="230" r="10" fill="#334155" />
  <circle cx="435" cy="230" r="10" fill="#334155" />
  <path d="M350 270 Q400 330, 450 270" stroke="#334155" stroke-width="5" fill="none" />
  
  <!-- Thought bubbles -->
  <circle cx="250" cy="150" r="40" fill="white" stroke="#38b2ea" stroke-width="2" />
  <circle cx="550" cy="150" r="40" fill="white" stroke="#ffd146" stroke-width="2" />
  <circle cx="400" cy="100" r="40" fill="white" stroke="#4ccd8b" stroke-width="2" />
  
  <!-- Connecting lines -->
  <path d="M310 240 Q280 200, 260 170" stroke="#38b2ea" stroke-width="2" fill="none" stroke-dasharray="5,5" />
  <path d="M490 240 Q520 200, 540 170" stroke="#ffd146" stroke-width="2" fill="none" stroke-dasharray="5,5" />
  <path d="M400 160 Q400 140, 400 120" stroke="#4ccd8b" stroke-width="2" fill="none" stroke-dasharray="5,5" />
  
  <!-- Icons inside bubbles -->
  <text x="250" y="155" text-anchor="middle" font-family="Arial" font-size="14" fill="#38b2ea">情绪</text>
  <text x="550" y="155" text-anchor="middle" font-family="Arial" font-size="14" fill="#ffd146">关系</text>
  <text x="400" y="105" text-anchor="middle" font-family="Arial" font-size="14" fill="#4ccd8b">成长</text>
  
  <!-- Supporting elements -->
  <path d="M150 350 Q250 200, 400 350 T650 350" stroke="#38b2ea" stroke-width="2" fill="none" opacity="0.5" />
  <path d="M150 380 Q250 530, 400 380 T650 380" stroke="#4ccd8b" stroke-width="2" fill="none" opacity="0.5" />
  
  <!-- Title -->
  <text x="400" y="500" text-anchor="middle" font-family="Arial" font-size="24" font-weight="bold" fill="#334155">青少年心理成长互动平台</text>
  <text x="400" y="530" text-anchor="middle" font-family="Arial" font-size="16" fill="#64748b">探索、理解、成长</text>
</svg>
